<svg xmlns="http://www.w3.org/2000/svg" width="24" height="24" viewBox="0 0 24 24"
     fill="none" stroke="#222" stroke-width="2" stroke-linecap="round" stroke-linejoin="round" role="img" aria-label="Hockey mask with sticks and puck">
  <title>Hockey mask with sticks and puck</title>
  <!-- Left stick (longer, no crossing, blade faces inward) -->
  <path d="M3.5 3 L9 19"/>
  <path d="M9 19 L11.0 20.2"/>
  <!-- Right stick (longer, no crossing, blade faces inward) -->
  <path d="M20.5 3 L15 19"/>
  <path d="M15 19 L13.0 20.2"/>
  <!-- Smaller simple hockey mask outline -->
  <path d="M12 6c-3 0-4.5 2.3-4.5 4.3 0 2.8 1.8 5.3 4.5 5.8 2.7-.5 4.5-3 4.5-5.8 0-2-1.5-4.3-4.5-4.3Z"/>
  <!-- Eyes -->
  <circle cx="10" cy="9.2" r="0.9" fill="#222" stroke="none"/>
  <circle cx="14" cy="9.2" r="0.9" fill="#222" stroke="none"/>
  <!-- Vents -->
  <circle cx="12" cy="12.6" r="0.6" fill="#222" stroke="none"/>
  <circle cx="10.6" cy="12.6" r="0.6" fill="#222" stroke="none"/>
  <circle cx="13.4" cy="12.6" r="0.6" fill="#222" stroke="none"/>
  <!-- Puck (moved up to avoid blade overlap) -->
  <ellipse cx="12" cy="17.6" rx="3.0" ry="1.2" fill="#222" stroke="none"/>
  <!-- Small red accent (optional) -->
  <circle cx="12" cy="6.2" r="1.0" fill="#c33" stroke="none"/>
</svg>
