<svg xmlns="http://www.w3.org/2000/svg" viewBox="0 0 24 24" width="24" height="24">
  <!-- Hockey mask (simplified) -->
  <path d="M8 2 L16 2 Q18 2 18 4 L18 9 Q18 11 16 11 L8 11 Q6 11 6 9 L6 4 Q6 2 8 2 Z" 
        fill="currentColor"/>
  <!-- Eye holes -->
  <circle cx="9.5" cy="6" r="1" fill="white"/>
  <circle cx="14.5" cy="6" r="1" fill="white"/>
  <!-- Mouth grille (simple line) -->
  <rect x="10" y="8" width="4" height="0.5" fill="white"/>
  
  <!-- Left hockey stick (angled) -->
  <path d="M2 12 L4 13 L5 20.5 L3 21 L1 20 L2 12 Z" fill="currentColor"/>
  <path d="M1 20 L1 22 L5 22 L5 20.5 L3 21 Z" fill="currentColor"/>
  
  <!-- Right hockey stick (angled) -->
  <path d="M22 12 L20 13 L19 20.5 L21 21 L23 20 L22 12 Z" fill="currentColor"/>
  <path d="M23 20 L23 22 L19 22 L19 20.5 L21 21 Z" fill="currentColor"/>
  
  <!-- Hockey puck -->
  <ellipse cx="12" cy="21" rx="2.5" ry="1" fill="currentColor"/>
</svg>