<svg xmlns="http://www.w3.org/2000/svg" width="24" height="24" viewBox="0 0 24 24"
     fill="none" stroke="currentColor" stroke-width="2" stroke-linecap="round" stroke-linejoin="round"
     role="img" aria-label="Hockey mask with sticks and puck (maximized color)">
  <title>Hockey mask with sticks and puck (maximized color)</title>
  <defs>
    <clipPath id="leftHalf">
      <rect x="0" y="0" width="12" height="24"/>
    </clipPath>
    <clipPath id="rightHalf">
      <rect x="12" y="0" width="12" height="24"/>
    </clipPath>
  </defs>
  <!-- Scale around center to occupy more of the canvas without clipping -->
  <g transform="translate(12,12) scale(1.18) translate(-12,-12)">
    <!-- Left stick group: match mono-biggest geometry (rotate around joint, keep angle) -->
    <g transform="rotate(0.4 7 19)">
      <path d="M3 2 L7 19" stroke="#e64553"/>
      <path d="M7 19 L10.6 21" stroke="#e64553"/>
    </g>
    <!-- Right stick group: match mono-biggest geometry -->
    <g transform="rotate(-0.4 17 19)">
      <path d="M21 2 L17 19" stroke="#1e66f5"/>
      <path d="M17 19 L13.4 21" stroke="#1e66f5"/>
    </g>
    <!-- Mask (scaled up proportionally around center to use more vertical space) -->
    <g transform="translate(12,12) scale(1.22) translate(-12,-12)">
      <!-- Mask outline halves -->
      <path d="M12 5.0c-2.6 0-3.9 2.0-3.9 3.8 0 2.5 1.6 4.9 3.9 5.4 2.3-.5 3.9-2.9 3.9-5.4 0-1.8-1.3-3.8-3.9-3.8Z" stroke="#1e66f5" fill="none" clip-path="url(#leftHalf)"/>
      <path d="M12 5.0c-2.6 0-3.9 2.0-3.9 3.8 0 2.5 1.6 4.9 3.9 5.4 2.3-.5 3.9-2.9 3.9-5.4 0-1.8-1.3-3.8-3.9-3.8Z" stroke="#e64553" fill="none" clip-path="url(#rightHalf)"/>
      <!-- Eyes (left blue, right red) -->
      <circle cx="10" cy="8.8" r="0.8" fill="#1e66f5" stroke="none"/>
      <circle cx="14" cy="8.8" r="0.8" fill="#e64553" stroke="none"/>
      <!-- Vents (center split, left blue, right red) -->
      <circle cx="12" cy="12.0" r="0.5" fill="#1e66f5" stroke="none" clip-path="url(#leftHalf)"/>
      <circle cx="12" cy="12.0" r="0.5" fill="#e64553" stroke="none" clip-path="url(#rightHalf)"/>
      <circle cx="10.7" cy="12.0" r="0.5" fill="#1e66f5" stroke="none"/>
      <circle cx="13.3" cy="12.0" r="0.5" fill="#e64553" stroke="none"/>
    </g>
    <!-- Puck (black) -->
    <ellipse cx="12" cy="18.2" rx="2.8" ry="1.1" fill="black" stroke="none"/>
  </g>
</svg>
